<?xml version="1.0" encoding="UTF-8"?>
<svg version="1.1" xmlns="http://www.w3.org/2000/svg" width="48" height="48">
<path d="M0 0 C1.53333984 -0.00386719 1.53333984 -0.00386719 3.09765625 -0.0078125 C4.16886719 -0.00007812 5.24007813 0.00765625 6.34375 0.015625 C7.95056641 0.00402344 7.95056641 0.00402344 9.58984375 -0.0078125 C10.61207031 -0.00523438 11.63429688 -0.00265625 12.6875 0 C13.62787109 0.00225586 14.56824219 0.00451172 15.53710938 0.00683594 C17.84375 0.265625 17.84375 0.265625 19.84375 2.265625 C19.98882695 5.01048093 20.03027423 7.65043043 19.96875 10.390625 C19.95972656 11.14472656 19.95070313 11.89882812 19.94140625 12.67578125 C19.9178187 14.53919754 19.88194719 16.40245093 19.84375 18.265625 C19.18375 18.265625 18.52375 18.265625 17.84375 18.265625 C17.51375 13.315625 17.18375 8.365625 16.84375 3.265625 C9.91375 3.265625 2.98375 3.265625 -4.15625 3.265625 C-4.15625 15.145625 -4.15625 27.025625 -4.15625 39.265625 C2.77375 39.265625 9.70375 39.265625 16.84375 39.265625 C17.17375 34.315625 17.50375 29.365625 17.84375 24.265625 C18.50375 24.265625 19.16375 24.265625 19.84375 24.265625 C19.89757106 26.89089689 19.93733313 29.51507213 19.96875 32.140625 C19.98550781 32.88699219 20.00226562 33.63335937 20.01953125 34.40234375 C20.0371459 36.35756961 19.94695189 38.31304521 19.84375 40.265625 C17.27386319 42.83551181 16.25464947 42.52269275 12.6875 42.53125 C11.15416016 42.53511719 11.15416016 42.53511719 9.58984375 42.5390625 C8.51863281 42.53132813 7.44742187 42.52359375 6.34375 42.515625 C4.73693359 42.52722656 4.73693359 42.52722656 3.09765625 42.5390625 C2.07542969 42.53648438 1.05320312 42.53390625 0 42.53125 C-0.94037109 42.52899414 -1.88074219 42.52673828 -2.84960938 42.52441406 C-5.15625 42.265625 -5.15625 42.265625 -7.15625 40.265625 C-7.35615227 37.42022358 -7.43601976 34.67424716 -7.421875 31.828125 C-7.42378845 30.99224854 -7.4257019 30.15637207 -7.42767334 29.29516602 C-7.42903536 27.52652689 -7.42533776 25.75787777 -7.41699219 23.98925781 C-7.40629275 21.27646506 -7.41688676 18.56433456 -7.4296875 15.8515625 C-7.42836591 14.1354152 -7.42580352 12.41926831 -7.421875 10.703125 C-7.42592346 9.88851807 -7.42997192 9.07391113 -7.43414307 8.23461914 C-7.3797867 1.73200043 -6.55114524 0.01571556 0 0 Z " fill="#FFFFFF" transform="translate(14.15625,2.734375)"/>
<path d="M0 0 C-0.62388892 3.61855575 -1.1709277 4.1709277 -4 7 C2.93 7.33 9.86 7.66 17 8 C17 8.66 17 9.32 17 10 C6.605 10.495 6.605 10.495 -4 11 C-2.68 12.32 -1.36 13.64 0 15 C0 15.99 0 16.98 0 18 C-4.62983765 17.15270945 -7.29394589 14.77930268 -10 11 C-10.30572272 7.94277283 -9.57315346 6.71389825 -7.6796875 4.35546875 C-3.62002342 0 -3.62002342 0 0 0 Z " fill="#FFFFFF" transform="translate(29,15)"/>
</svg>
